<?xml version="1.0" encoding="iso-8859-1"?>
<!-- Uploaded to: SVG Repo, www.svgrepo.com, Generator: SVG Repo Mixer Tools -->
<svg fill="#000000" height="800px" width="800px" version="1.1" id="Layer_1" xmlns="http://www.w3.org/2000/svg" xmlns:xlink="http://www.w3.org/1999/xlink" 
	 viewBox="0 0 512.001 512.001" xml:space="preserve">
<g>
	<g>
		<path d="M256,0C136.328,0,38.961,97.363,38.961,217.04v278.256c0,7.185,4.598,13.566,11.413,15.837
			c6.826,2.294,14.326-0.066,18.641-5.82l36.728-48.973l36.728,48.972c6.304,8.413,20.413,8.413,26.717,0l36.728-48.972
			l36.728,48.972c6.304,8.413,20.413,8.413,26.717,0l36.728-48.972l36.728,48.972c6.304,8.413,20.413,8.413,26.717,0l36.728-48.972
			l36.728,48.972c4.355,5.806,11.904,8.074,18.641,5.82c6.815-2.272,11.413-8.652,11.413-15.837V217.04
			C473.04,97.363,375.673,0,256,0z M172.524,300.517c-36.826,0-66.781-29.956-66.781-66.781c0-36.826,29.956-66.781,66.781-66.781
			s66.781,29.956,66.781,66.781C239.305,270.561,209.349,300.517,172.524,300.517z M339.477,300.517
			c-36.826,0-66.781-29.956-66.781-66.781c0-36.826,29.956-66.781,66.781-66.781s66.781,29.956,66.781,66.781
			C406.259,270.561,376.303,300.517,339.477,300.517z"/>
	</g>
</g>
<g>
	<g>
		<path d="M339.477,200.344c-18.413,0-33.391,14.978-33.391,33.391c0,18.413,14.978,33.391,33.391,33.391
			c3.386,0,6.589-0.657,9.671-1.597c-5.699-2.658-9.671-8.397-9.671-15.098c0-9.22,7.475-16.695,16.695-16.695
			c6.701,0,12.44,3.975,15.097,9.672c0.942-3.082,1.598-6.286,1.598-9.672C372.868,215.322,357.89,200.344,339.477,200.344z"/>
	</g>
</g>
<g>
	<g>
		<path d="M172.524,200.344c-18.413,0-33.391,14.978-33.391,33.391c0,18.413,14.978,33.391,33.391,33.391
			c3.386,0,6.589-0.657,9.671-1.597c-5.699-2.658-9.671-8.397-9.671-15.098c0-9.22,7.475-16.695,16.695-16.695
			c6.701,0,12.44,3.975,15.097,9.672c0.942-3.082,1.598-6.286,1.598-9.672C205.914,215.322,190.936,200.344,172.524,200.344z"/>
	</g>
</g>
</svg>