<?xml version="1.0" encoding="iso-8859-1"?>
<!-- Uploaded to: SVG Repo, www.svgrepo.com, Generator: SVG Repo Mixer Tools -->
<!DOCTYPE svg PUBLIC "-//W3C//DTD SVG 1.1//EN" "http://www.w3.org/Graphics/SVG/1.1/DTD/svg11.dtd">
<svg fill="#000000" height="800px" width="800px" version="1.1" id="Capa_1" xmlns="http://www.w3.org/2000/svg" xmlns:xlink="http://www.w3.org/1999/xlink" 
	 viewBox="0 0 383.036 383.036" xml:space="preserve">
<path d="M371.856,2.178c-2.382-1.897-5.5-2.606-8.467-1.925L135.276,52.595c-4.543,1.042-7.764,5.085-7.764,9.747v201.701
	c-12.726-13.011-30.457-21.108-50.051-21.108c-38.626,0-70.051,31.425-70.051,70.051c0,38.626,31.425,70.051,70.051,70.051
	c38.626,0,70.051-31.425,70.051-70.051V160.743l208.113-47.752v98.71c-12.726-13.011-30.457-21.108-50.051-21.108
	c-38.626,0-70.051,31.425-70.051,70.051c0,38.626,31.425,70.051,70.051,70.051c38.626,0,70.051-31.425,70.051-70.051V10
	C375.626,6.955,374.238,4.075,371.856,2.178z M77.461,363.036c-27.598,0-50.051-22.453-50.051-50.051s22.453-50.051,50.051-50.051
	s50.051,22.453,50.051,50.051S105.059,363.036,77.461,363.036z M305.575,310.695c-27.598,0-50.051-22.453-50.051-50.051
	s22.453-50.051,50.051-50.051s50.051,22.453,50.051,50.051S333.173,310.695,305.575,310.695z M147.513,140.224V70.307
	l208.113-47.752v69.917L147.513,140.224z"/>
</svg>