<?xml version="1.0" encoding="iso-8859-1"?>
<!-- Uploaded to: SVG Repo, www.svgrepo.com, Generator: SVG Repo Mixer Tools -->
<!DOCTYPE svg PUBLIC "-//W3C//DTD SVG 1.1//EN" "http://www.w3.org/Graphics/SVG/1.1/DTD/svg11.dtd">
<svg fill="#000000" height="800px" width="800px" version="1.1" id="Capa_1" xmlns="http://www.w3.org/2000/svg" xmlns:xlink="http://www.w3.org/1999/xlink" 
	 viewBox="0 0 453.438 453.438" xml:space="preserve">
<g>
	<path d="M58,120.077H48c-5.523,0-10,4.477-10,10s4.477,10,10,10h40c5.523,0,10-4.477,10-10s-4.477-10-10-10H78v-6h46
		c5.523,0,10-4.477,10-10v-74c0-5.523-4.477-10-10-10H10c-5.523,0-10,4.477-10,10v74c0,5.523,4.477,10,10,10h48V120.077z M20,40.077
		h94v54H20V40.077z"/>
	<path d="M443.438,377.077h-5.939v-64c0-5.523-4.477-10-10-10h-114c-5.523,0-10,4.477-10,10v64h-5.939c-5.523,0-10,4.477-10,10
		v12.792c0,13.743,11.18,24.923,24.923,24.923h116.033c13.742,0,24.922-11.18,24.922-24.923v-12.792
		C453.438,381.554,448.961,377.077,443.438,377.077z M323.499,323.077h94v54h-94V323.077z M433.438,399.87
		c0,2.714-2.208,4.923-4.922,4.923H312.483c-2.714,0-4.923-2.208-4.923-4.923v-2.792h125.878V399.87z"/>
	<path d="M327.485,212.808c0-64.506-52.479-116.985-116.985-116.985S93.515,148.302,93.515,212.808S145.994,329.794,210.5,329.794
		S327.485,277.314,327.485,212.808z M113.515,212.808c0-53.478,43.507-96.985,96.985-96.985s96.985,43.508,96.985,96.985
		c0,53.478-43.507,96.985-96.985,96.985S113.515,266.286,113.515,212.808z"/>
	<path d="M266.551,365.142c-17.922,6.592-36.779,9.935-56.048,9.935s-38.126-3.343-56.048-9.935
		c-5.184-1.907-10.931,0.75-12.837,5.933s0.75,10.931,5.933,12.837c20.14,7.408,41.32,11.165,62.952,11.165
		s42.813-3.756,62.952-11.165c5.184-1.907,7.84-7.654,5.933-12.837C277.481,365.892,271.734,363.235,266.551,365.142z"/>
	<path d="M154.455,60.473c17.922-6.593,36.779-9.935,56.048-9.935s38.126,3.343,56.048,9.935c1.139,0.419,2.305,0.617,3.451,0.617
		c4.072,0,7.898-2.506,9.386-6.55c1.907-5.183-0.75-10.931-5.933-12.838c-20.14-7.408-41.32-11.165-62.952-11.165
		s-42.813,3.756-62.952,11.165c-5.184,1.907-7.84,7.654-5.933,12.838C143.524,59.723,149.271,62.379,154.455,60.473z"/>
	<path d="M48.784,282.31c1.146,0,2.313-0.199,3.452-0.618c5.183-1.907,7.839-7.654,5.933-12.838
		c-6.593-17.921-9.936-36.778-9.936-56.047s3.343-38.126,9.936-56.047c1.907-5.184-0.75-10.931-5.933-12.838
		c-5.186-1.907-10.932,0.75-12.838,5.933c-7.409,20.14-11.165,41.32-11.165,62.953s3.756,42.813,11.165,62.953
		C40.886,279.804,44.712,282.31,48.784,282.31z"/>
	<path d="M368.771,281.693c1.139,0.419,2.305,0.618,3.451,0.618c4.072,0,7.898-2.506,9.386-6.551
		c7.408-20.14,11.165-41.32,11.165-62.952s-3.756-42.813-11.165-62.952c-1.907-5.184-7.655-7.841-12.837-5.933
		c-5.184,1.907-7.84,7.654-5.933,12.837c6.592,17.922,9.935,36.779,9.935,56.048s-3.343,38.126-9.935,56.048
		C360.931,274.038,363.587,279.786,368.771,281.693z"/>
	<path d="M245.138,261.589c1.953,1.953,4.512,2.929,7.071,2.929s5.119-0.977,7.071-2.929c3.905-3.905,3.905-10.237,0-14.143
		l-34.638-34.637l34.638-34.637c3.905-3.905,3.905-10.237,0-14.142c-3.906-3.905-10.237-3.905-14.143,0L210.5,198.666
		l-34.638-34.637c-3.905-3.905-10.237-3.905-14.143,0c-3.905,3.905-3.905,10.237,0,14.142l34.638,34.637l-34.638,34.637
		c-3.905,3.905-3.905,10.237,0,14.143c1.953,1.953,4.512,2.929,7.071,2.929c2.559,0,5.119-0.977,7.071-2.929l34.638-34.637
		L245.138,261.589z"/>
	<path d="M326.225,127.888c11.508,0,22.364-4.889,29.981-13.299h19.375c7.617,8.41,18.474,13.299,29.981,13.299
		c22.304,0,40.45-18.146,40.45-40.451s-18.146-40.451-40.45-40.451h-79.338c-22.305,0-40.451,18.146-40.451,40.451
		S303.92,127.888,326.225,127.888z M326.225,66.987h79.338c11.276,0,20.45,9.174,20.45,20.451s-9.174,20.451-20.45,20.451
		c-6.761,0-13.08-3.342-16.903-8.939c-1.863-2.728-4.954-4.36-8.257-4.36h-29.017c-3.304,0-6.394,1.632-8.257,4.36
		c-3.824,5.598-10.143,8.939-16.903,8.939c-11.276,0-20.451-9.174-20.451-20.451S314.948,66.987,326.225,66.987z"/>
	<path d="M99.018,299.003H54.734c-12.957,0-23.497,10.541-23.497,23.497v87.364c0,12.957,10.541,23.497,23.497,23.497h44.284
		c12.957,0,23.497-10.541,23.497-23.497V322.5C122.515,309.543,111.975,299.003,99.018,299.003z M54.734,319.003h44.284
		c1.928,0,3.497,1.569,3.497,3.497v64.349H51.237V322.5C51.237,320.572,52.806,319.003,54.734,319.003z M51.237,409.864v-3.015
		h15.639v6.512H54.734C52.806,413.361,51.237,411.792,51.237,409.864z M99.018,413.361H86.876v-6.512h15.639v3.015
		C102.515,411.792,100.946,413.361,99.018,413.361z"/>
</g>
</svg>