<?xml version="1.0" encoding="iso-8859-1"?>
<!-- Uploaded to: SVG Repo, www.svgrepo.com, Generator: SVG Repo Mixer Tools -->
<svg fill="#000000" height="800px" width="800px" version="1.1" id="Layer_1" xmlns="http://www.w3.org/2000/svg" xmlns:xlink="http://www.w3.org/1999/xlink" 
	 viewBox="0 0 512 512" xml:space="preserve">
<g>
	<g>
		<path d="M428.522,0H16.696C7.479,0,0,7.473,0,16.696V395.13c0,9.223,7.479,16.696,16.696,16.696h16.696V116.87
			c0-27.619,22.468-50.087,50.087-50.087h361.739V16.696C445.217,7.473,437.739,0,428.522,0z"/>
	</g>
</g>
<g>
	<g>
		<path d="M495.304,100.174H83.478c-9.217,0-16.696,7.473-16.696,16.696v378.435c0,9.223,7.479,16.696,16.696,16.696h411.826
			c9.217,0,16.696-7.473,16.696-16.696V116.87C512,107.647,504.521,100.174,495.304,100.174z M445.217,428.522
			c0,9.223-7.479,16.696-16.696,16.696H150.261c-9.217,0-16.696-7.473-16.696-16.696V250.435c0-9.223,7.479-16.696,16.696-16.696
			h278.261c9.217,0,16.696,7.473,16.696,16.696V428.522z"/>
	</g>
</g>
</svg>