<?xml version="1.0" encoding="iso-8859-1"?>
<!-- Uploaded to: SVG Repo, www.svgrepo.com, Generator: SVG Repo Mixer Tools -->
<svg fill="#000000" height="800px" width="800px" version="1.1" id="Layer_1" xmlns="http://www.w3.org/2000/svg" xmlns:xlink="http://www.w3.org/1999/xlink" 
	 viewBox="0 0 512 512" xml:space="preserve">
<g>
	<g>
		<path d="M103.25,378.435c6.914,19.391,25.274,33.391,47.01,33.391s40.096-14,47.01-33.391H103.25z"/>
	</g>
</g>
<g>
	<g>
		<path d="M361.739,311.652c-21.737,0-40.096,14-47.01,33.391h94.02C401.835,325.652,383.476,311.652,361.739,311.652z"/>
	</g>
</g>
<g>
	<g>
		<path d="M314.73,378.435c6.913,19.391,25.273,33.391,47.009,33.391s40.096-14,47.01-33.391H314.73z"/>
	</g>
</g>
<g>
	<g>
		<path d="M150.261,311.652c-21.737,0-40.096,14-47.01,33.391h94.02C190.357,325.652,171.997,311.652,150.261,311.652z"/>
	</g>
</g>
<g>
	<g>
		<path d="M478.609,147.772V50.087C478.609,22.468,456.141,0,428.522,0H83.478C55.859,0,33.391,22.468,33.391,50.087v97.685
			C14,154.686,0,173.046,0,194.783v267.13C0,489.532,22.468,512,50.087,512h411.826C489.532,512,512,489.532,512,461.913v-267.13
			C512,173.046,498,154.686,478.609,147.772z M150.261,445.217c-46.032,0-83.478-37.446-83.478-83.478
			c0-46.032,37.446-83.478,83.478-83.478c46.032,0,83.478,37.446,83.478,83.478C233.739,407.771,196.293,445.217,150.261,445.217z
			 M66.783,228.174c0-9.22,7.475-16.696,16.696-16.696s16.696,7.475,16.696,16.696c0,9.22-7.475,16.696-16.696,16.696
			S66.783,237.394,66.783,228.174z M133.565,228.174c0-9.223,7.479-16.696,16.696-16.696h211.478
			c9.217,0,16.696,7.473,16.696,16.696c0,9.223-7.479,16.696-16.696,16.696H150.261C141.044,244.87,133.565,237.397,133.565,228.174
			z M361.739,445.217c-46.032,0-83.478-37.446-83.478-83.478c0-46.032,37.446-83.478,83.478-83.478
			c46.032,0,83.478,37.446,83.478,83.478C445.217,407.771,407.771,445.217,361.739,445.217z M428.522,244.87
			c-9.22,0-16.696-7.475-16.696-16.696c0-9.22,7.475-16.696,16.696-16.696s16.696,7.475,16.696,16.696
			C445.217,237.394,437.742,244.87,428.522,244.87z M445.217,144.696H267.13V128c0-9.223-7.479-16.696-16.696-16.696
			c-9.217,0-16.696,7.473-16.696,16.696v16.696h-33.391V128c0-9.223-7.479-16.696-16.696-16.696
			c-9.217,0-16.696,7.473-16.696,16.696v16.696h-33.391V128c0-9.223-7.479-16.696-16.696-16.696s-16.696,7.473-16.696,16.696v16.696
			H66.783V50.087c0-9.206,7.49-16.696,16.696-16.696h345.043c9.206,0,16.696,7.49,16.696,16.696V144.696z"/>
	</g>
</g>
</svg>