<?xml version="1.0" encoding="iso-8859-1"?>
<!-- Uploaded to: SVG Repo, www.svgrepo.com, Generator: SVG Repo Mixer Tools -->
<svg fill="#000000" height="800px" width="800px" version="1.1" id="Layer_1" xmlns="http://www.w3.org/2000/svg" xmlns:xlink="http://www.w3.org/1999/xlink" 
	 viewBox="0 0 512 512" xml:space="preserve">
<g>
	<g>
		<path d="M279.943,378.435H0v33.391h295.115C287.785,402.101,282.461,390.79,279.943,378.435z"/>
	</g>
</g>
<g>
	<g>
		<path d="M361.739,311.652c-27.619,0-50.087,22.468-50.087,50.087c0,27.619,22.468,50.087,50.087,50.087
			c27.619,0,50.087-22.468,50.087-50.087C411.826,334.12,389.358,311.652,361.739,311.652z"/>
	</g>
</g>
<g>
	<g>
		<path d="M428.364,311.652c7.329,9.725,12.653,21.036,15.172,33.391H512v-33.391H428.364z"/>
	</g>
</g>
<g>
	<g>
		<path d="M0,311.652v33.391h279.943c2.519-12.355,7.843-23.667,15.172-33.391H0z"/>
	</g>
</g>
<g>
	<g>
		<path d="M443.536,378.435c-2.519,12.355-7.843,23.667-15.172,33.391H512v-33.391H443.536z"/>
	</g>
</g>
<g>
	<g>
		<path d="M428.522,77.913H100.174V16.696C100.174,7.473,92.695,0,83.478,0S66.783,7.473,66.783,16.696v62.9
			C28.724,87.352,0,121.076,0,161.391v116.87h512v-116.87C512,115.359,474.554,77.913,428.522,77.913z M395.13,244.87H116.87
			c-27.619,0-50.087-22.468-50.087-50.087c0-27.619,22.468-50.087,50.087-50.087H395.13c27.619,0,50.087,22.468,50.087,50.087
			C445.217,222.402,422.75,244.87,395.13,244.87z"/>
	</g>
</g>
<g>
	<g>
		<path d="M395.13,178.087H166.957v33.391H395.13c9.206,0,16.696-7.49,16.696-16.696
			C411.826,185.577,404.336,178.087,395.13,178.087z"/>
	</g>
</g>
<g>
	<g>
		<path d="M1.682,445.217C9.438,483.276,43.163,512,83.478,512h345.043c40.316,0,74.041-28.724,81.796-66.783H1.682z"/>
	</g>
</g>
<g>
	<g>
		<path d="M116.87,178.087c-9.206,0-16.696,7.49-16.696,16.696c0,9.206,7.49,16.696,16.696,16.696h16.696v-33.391H116.87z"/>
	</g>
</g>
</svg>