<?xml version="1.0" encoding="iso-8859-1"?>
<!-- Uploaded to: SVG Repo, www.svgrepo.com, Generator: SVG Repo Mixer Tools -->
<svg fill="#000000" height="800px" width="800px" version="1.1" id="Layer_1" xmlns="http://www.w3.org/2000/svg" xmlns:xlink="http://www.w3.org/1999/xlink" 
	 viewBox="0 0 512 512" xml:space="preserve">
<g>
	<g>
		<path d="M507.052,4.948c-6.597-6.597-17.285-6.597-23.882,0l-37.589,37.589c-33.614-23.846-83.988-30.611-151.637,36.99
			C282.686,90.787,71.689,301.785,78.988,294.494c-10.897,10.885-33.579,33.558-45.717,62.398
			c-13.403,31.848-10.142,62.275,8.832,89.124L4.948,483.17c-6.597,6.597-6.597,17.285,0,23.882c6.598,6.598,17.284,6.598,23.882,0
			l36.3-36.3c52.074,42.709,130.774,41.211,181.041-9.077c47.42-47.419,52.004-121.534,14.055-174.299
			c1.924-6.519,5.204-12.151,9.838-16.775c4.618-4.618,10.239-7.895,16.74-9.816c52.666,37.99,126.669,33.608,174.322-14.066
			c49.453-49.453,52.469-128.016,9.071-181.035l36.855-36.855C513.649,22.231,513.649,11.544,507.052,4.948z M74.086,432.478
			c-7.77-9.007-12.497-18.352-14.299-28.035l129.255-129.254c10.696,1.914,20.828,7.544,30.737,17.001L77.127,434.842
			C76.227,433.941,75.212,433.041,74.086,432.478z M140.627,466.93h-0.113c-12.948-1.351-25.445-5.067-36.817-10.921
			l136.685-136.685c6.079,11.484,9.683,24.094,11.034,36.704L140.627,466.93z M246.192,246.708
			c-4.269,4.265-7.76,9.161-10.824,14.335c-16.936-13.398-35.422-20.14-54.853-20.319l59.651-59.648
			c0.015,21.875,8.664,40.111,20.341,54.836C255.34,238.97,250.45,242.45,246.192,246.708z M274.722,189.508L403.976,60.254
			c10.81,2.027,21.056,7.656,30.737,17.001l-142.99,143.102C282.378,210.562,276.749,200.316,274.722,189.508z M355.562,251.995
			c-13.06-1.351-25.445-4.954-36.817-10.921L455.43,104.277c5.967,11.597,9.683,24.207,10.921,36.93L355.562,251.995z"/>
	</g>
</g>
</svg>