<?xml version="1.0" encoding="iso-8859-1"?>
<!-- Uploaded to: SVG Repo, www.svgrepo.com, Generator: SVG Repo Mixer Tools -->
<svg fill="#000000" height="800px" width="800px" version="1.1" id="Layer_1" xmlns="http://www.w3.org/2000/svg" xmlns:xlink="http://www.w3.org/1999/xlink" 
	 viewBox="0 0 512 512" xml:space="preserve">
<g>
	<g>
		<path d="M422.957,105.739c-9.206,0-16.696,7.49-16.696,16.696c0,9.206,7.49,16.696,16.696,16.696
			c9.206,0,16.696-7.49,16.696-16.696C439.652,113.229,432.162,105.739,422.957,105.739z"/>
	</g>
</g>
<g>
	<g>
		<path d="M289.391,306.087h48.754c0.788-5.468,1.333-11.013,1.333-16.696c0-64.441-52.429-116.87-116.87-116.87
			s-116.87,52.429-116.87,116.87s52.429,116.87,116.87,116.87c46.5,0,86.627-27.369,105.432-66.783h-38.649
			c-9.223,0-16.696-7.473-16.696-16.696C272.696,313.56,280.169,306.087,289.391,306.087z M222.609,339.478
			c-27.619,0-50.087-22.468-50.087-50.087c0-27.619,22.468-50.087,50.087-50.087s50.087,22.468,50.087,50.087
			C272.696,317.01,250.228,339.478,222.609,339.478z"/>
	</g>
</g>
<g>
	<g>
		<path d="M222.609,272.696c-9.206,0-16.696,7.49-16.696,16.696s7.49,16.696,16.696,16.696s16.696-7.49,16.696-16.696
			S231.815,272.696,222.609,272.696z"/>
	</g>
</g>
<g>
	<g>
		<path d="M456.348,0H55.652C24.968,0,0,24.968,0,55.652v400.696C0,487.032,24.968,512,55.652,512h400.696
			C487.032,512,512,487.032,512,456.348V55.652C512,24.968,487.032,0,456.348,0z M89.044,72.348h233.739
			c9.223,0,16.696,7.473,16.696,16.696c0,9.223-7.473,16.696-16.696,16.696H89.044c-9.223,0-16.696-7.473-16.696-16.696
			C72.348,79.821,79.821,72.348,89.044,72.348z M89.044,439.652c-9.22,0-16.696-7.475-16.696-16.696
			c0-9.22,7.475-16.696,16.696-16.696c9.22,0,16.696,7.475,16.696,16.696C105.739,432.177,98.264,439.652,89.044,439.652z
			 M422.957,439.652c-9.22,0-16.696-7.475-16.696-16.696c0-9.22,7.475-16.696,16.696-16.696c9.22,0,16.696,7.475,16.696,16.696
			C439.652,432.177,432.177,439.652,422.957,439.652z M439.652,169.445v119.946c0,27.619-22.468,50.087-50.087,50.087h-25.463
			c-20.695,58.263-76.222,100.174-141.493,100.174c-82.853,0-150.261-67.408-150.261-150.261S139.756,139.13,222.609,139.13
			S372.87,206.539,372.87,289.391c0,5.649-0.374,11.206-0.984,16.696h17.68c9.206,0,16.696-7.49,16.696-16.696V169.445
			c-19.391-6.914-33.391-25.273-33.391-47.011c0-27.619,22.468-50.087,50.087-50.087c27.619,0,50.087,22.468,50.087,50.087
			C473.043,144.171,459.044,162.531,439.652,169.445z"/>
	</g>
</g>
</svg>