<?xml version="1.0" encoding="iso-8859-1"?>
<!-- Uploaded to: SVG Repo, www.svgrepo.com, Generator: SVG Repo Mixer Tools -->
<svg fill="#000000" height="800px" width="800px" version="1.1" id="Layer_1" xmlns="http://www.w3.org/2000/svg" xmlns:xlink="http://www.w3.org/1999/xlink" 
	 viewBox="0 0 512 512" xml:space="preserve">
<g>
	<g>
		<path d="M456.348,144.696c9.217,0,16.696-7.473,16.696-16.696V94.609c0-9.223-7.479-16.696-16.696-16.696
			c-9.217,0-16.696,7.473-16.696,16.696v16.696h-33.391V50.087C406.261,22.468,383.793,0,356.174,0H155.826
			c-27.619,0-50.087,22.468-50.087,50.087v61.217H72.348V94.609c0-9.223-7.479-16.696-16.696-16.696
			c-9.217,0-16.696,7.473-16.696,16.696V128c0,9.223,7.479,16.696,16.696,16.696h50.087v33.391H89.044
			c-27.619,0-50.087,22.468-50.087,50.087v50.087h434.087v-50.087c0-27.619-22.468-50.087-50.087-50.087h-16.696v-33.391H456.348z
			 M372.87,211.478H139.13v-66.783H372.87V211.478z M372.87,111.304H139.13V50.087c0-9.206,7.49-16.696,16.696-16.696h200.348
			c9.206,0,16.696,7.49,16.696,16.696V111.304z"/>
	</g>
</g>
<g>
	<g>
		<path d="M477.73,311.652H34.267C6.333,423.362,5.565,422.995,5.565,436.739v25.174C5.565,489.532,28.033,512,55.652,512h400.696
			c27.619,0,50.087-22.468,50.087-50.087v-25.174C506.435,423.224,505.943,424.477,477.73,311.652z M389.565,345.043
			c9.22,0,16.696,7.475,16.696,16.696s-7.475,16.696-16.696,16.696c-9.22,0-16.696-7.475-16.696-16.696
			S380.345,345.043,389.565,345.043z M322.783,345.043c9.22,0,16.696,7.475,16.696,16.696s-7.475,16.696-16.696,16.696
			s-16.696-7.475-16.696-16.696S313.562,345.043,322.783,345.043z M256,345.043c9.22,0,16.696,7.475,16.696,16.696
			S265.22,378.435,256,378.435c-9.22,0-16.696-7.475-16.696-16.696S246.78,345.043,256,345.043z M189.217,345.043
			c9.22,0,16.696,7.475,16.696,16.696s-7.475,16.696-16.696,16.696s-16.696-7.475-16.696-16.696S179.997,345.043,189.217,345.043z
			 M122.435,345.043c9.22,0,16.696,7.475,16.696,16.696s-7.475,16.696-16.696,16.696c-9.22,0-16.696-7.475-16.696-16.696
			S113.214,345.043,122.435,345.043z M473.043,461.913c0,9.206-7.49,16.696-16.696,16.696H55.652
			c-9.206,0-16.696-7.49-16.696-16.696v-16.696h434.087V461.913z"/>
	</g>
</g>
</svg>