<?xml version="1.0" encoding="iso-8859-1"?>
<!-- Uploaded to: SVG Repo, www.svgrepo.com, Generator: SVG Repo Mixer Tools -->
<svg fill="#000000" height="800px" width="800px" version="1.1" id="Layer_1" xmlns="http://www.w3.org/2000/svg" xmlns:xlink="http://www.w3.org/1999/xlink" 
	 viewBox="0 0 512 512" xml:space="preserve">
<g>
	<g>
		<path d="M499.761,138.976c-7.559-59.469-55.58-107.49-115.05-115.05c-57.439-7.302-108.833,22.264-134.203,68.138
			c-20.161-36.385-56.852-62.712-99.536-68.138C63.728,12.837-9.981,86.545,1.108,173.788c7.559,59.47,55.58,107.491,115.05,115.05
			c8.402,1.067,16.67,1.326,24.751,0.88c-23.19,4.382-40.735,24.737-40.735,49.203v100.174c0,27.662,22.424,50.087,50.087,50.087
			h200.348c27.662,0,50.087-22.424,50.087-50.087V338.922c0-24.421-17.482-44.749-40.612-49.18
			C442.784,294.116,510.416,222.801,499.761,138.976z M133.565,223.165c-36.826,0-66.783-29.956-66.783-66.783
			c0-36.826,29.956-66.783,66.783-66.783c36.826,0,66.783,29.956,66.783,66.783C200.348,193.209,170.391,223.165,133.565,223.165z
			 M183.652,389.008c-9.22,0-16.696-7.475-16.696-16.696s7.475-16.696,16.696-16.696c9.22,0,16.696,7.475,16.696,16.696
			S192.872,389.008,183.652,389.008z M250.435,389.008c-9.22,0-16.696-7.475-16.696-16.696s7.475-16.696,16.696-16.696
			c9.22,0,16.696,7.475,16.696,16.696S259.655,389.008,250.435,389.008z M150.546,288.835c43.025-5.527,79.648-31.665,99.815-68.134
			c20.155,36.376,56.833,62.699,99.504,68.134H150.546z M300.522,156.382c0-36.826,29.956-66.783,66.783-66.783
			c36.826,0,66.783,29.956,66.783,66.783c0,36.826-29.956,66.783-66.783,66.783C330.478,223.165,300.522,193.209,300.522,156.382z"
			/>
	</g>
</g>
<g>
	<g>
		<path d="M490.51,306.236l-56.423,16.927v131.69l56.423,16.927c10.746,3.223,21.49-4.861,21.49-15.989V322.226
			C512,311.092,501.265,303.021,490.51,306.236z"/>
	</g>
</g>
</svg>