<?xml version="1.0" encoding="iso-8859-1"?>
<!-- Uploaded to: SVG Repo, www.svgrepo.com, Generator: SVG Repo Mixer Tools -->
<!DOCTYPE svg PUBLIC "-//W3C//DTD SVG 1.1//EN" "http://www.w3.org/Graphics/SVG/1.1/DTD/svg11.dtd">
<svg fill="#000000" height="800px" width="800px" version="1.1" id="Capa_1" xmlns="http://www.w3.org/2000/svg" xmlns:xlink="http://www.w3.org/1999/xlink" 
	 viewBox="0 0 435.479 435.479" xml:space="preserve">
<g>
	<path d="M258.071,123.88c3.573,0,6.874-1.906,8.66-5c1.787-3.094,1.787-6.906,0-10L226.4,39.025c-1.786-3.094-5.087-5-8.66-5
		s-6.874,1.906-8.66,5l-40.331,69.855c-1.787,3.094-1.787,6.906,0,10c1.786,3.094,5.087,5,8.66,5H258.071z M217.74,64.025
		l23.011,39.855h-46.021L217.74,64.025z"/>
	<path d="M120.579,172.812H50.723c-5.523,0-10,4.477-10,10v69.855c0,5.523,4.477,10,10,10h69.855c5.523,0,10-4.477,10-10v-69.855
		C130.579,177.289,126.102,172.812,120.579,172.812z M110.579,242.667H60.723v-49.855h49.855V242.667z"/>
	<path d="M217.74,171.302c47.228,0,85.651-38.423,85.651-85.651S264.968,0,217.74,0s-85.651,38.423-85.651,85.651
		S170.511,171.302,217.74,171.302z M217.74,20c36.2,0,65.651,29.451,65.651,65.651c0,36.2-29.451,65.651-65.651,65.651
		s-65.651-29.451-65.651-65.651C152.089,49.451,181.539,20,217.74,20z"/>
	<path d="M217.74,264.178c-47.228,0-85.651,38.423-85.651,85.651s38.423,85.651,85.651,85.651s85.651-38.423,85.651-85.651
		S264.968,264.178,217.74,264.178z M217.74,415.479c-36.2,0-65.651-29.451-65.651-65.651s29.451-65.651,65.651-65.651
		s65.651,29.451,65.651,65.651S253.94,415.479,217.74,415.479z"/>
	<path d="M349.828,132.089c-47.228,0-85.651,38.423-85.651,85.651s38.423,85.651,85.651,85.651s85.651-38.423,85.651-85.651
		S397.056,132.089,349.828,132.089z M349.828,283.391c-36.2,0-65.651-29.451-65.651-65.651s29.451-65.651,65.651-65.651
		s65.651,29.451,65.651,65.651S386.029,283.391,349.828,283.391z"/>
	<path d="M171.302,217.74c0-47.228-38.423-85.651-85.651-85.651S0,170.512,0,217.74s38.423,85.651,85.651,85.651
		S171.302,264.968,171.302,217.74z M85.651,283.391C49.451,283.391,20,253.94,20,217.74s29.451-65.651,65.651-65.651
		s65.651,29.451,65.651,65.651S121.851,283.391,85.651,283.391z"/>
	<path d="M349.828,172.812c-24.773,0-44.928,20.154-44.928,44.928s20.154,44.928,44.928,44.928s44.928-20.154,44.928-44.928
		S374.602,172.812,349.828,172.812z M349.828,242.667c-13.745,0-24.928-11.183-24.928-24.928s11.183-24.928,24.928-24.928
		s24.928,11.183,24.928,24.928S363.573,242.667,349.828,242.667z"/>
	<path d="M252.56,315.009c-3.905-3.905-10.237-3.905-14.142,0l-20.678,20.678l-20.678-20.678c-3.905-3.905-10.237-3.905-14.142,0
		c-3.905,3.905-3.905,10.237,0,14.142l20.677,20.677l-20.677,20.677c-3.905,3.905-3.906,10.237,0,14.142
		c1.953,1.953,4.512,2.929,7.071,2.929c2.559,0,5.119-0.977,7.071-2.929l20.678-20.678l20.678,20.678
		c1.952,1.953,4.512,2.929,7.071,2.929s5.119-0.977,7.071-2.929c3.905-3.905,3.905-10.237,0-14.142l-20.677-20.677l20.677-20.677
		C256.465,325.246,256.465,318.914,252.56,315.009z"/>
</g>
</svg>