<?xml version="1.0" encoding="iso-8859-1"?>
<!-- Uploaded to: SVG Repo, www.svgrepo.com, Generator: SVG Repo Mixer Tools -->
<svg fill="#000000" height="800px" width="800px" version="1.1" id="Layer_1" xmlns="http://www.w3.org/2000/svg" xmlns:xlink="http://www.w3.org/1999/xlink" 
	 viewBox="0 0 512 512" xml:space="preserve">
<g>
	<g>
		<path d="M461.913,55.652H50.087C22.468,55.652,0,78.12,0,105.739v300.522c0,27.619,22.468,50.087,50.087,50.087
			c148.444,0,264.815,0,411.826,0c27.619,0,50.087-22.468,50.087-50.087V105.739C512,78.12,489.532,55.652,461.913,55.652z
			 M143.885,422.957l16.696-33.391h190.837l16.696,33.391H143.885z M378.435,322.783h-244.87c-36.826,0-66.783-29.956-66.783-66.783
			s29.956-66.783,66.783-66.783h244.87c36.826,0,66.783,29.956,66.783,66.783S415.261,322.783,378.435,322.783z M428.522,155.826
			H83.478c-9.223,0-16.696-7.473-16.696-16.696s7.473-16.696,16.696-16.696h345.043c9.223,0,16.696,7.473,16.696,16.696
			C445.217,148.353,437.744,155.826,428.522,155.826z"/>
	</g>
</g>
<g>
	<g>
		<path d="M378.435,222.609c-18.413,0-33.391,14.978-33.391,33.391s14.978,33.391,33.391,33.391
			c18.413,0,33.391-14.978,33.391-33.391S396.848,222.609,378.435,222.609z"/>
	</g>
</g>
<g>
	<g>
		<path d="M133.565,222.609c-18.413,0-33.391,14.978-33.391,33.391s14.978,33.391,33.391,33.391s33.391-14.978,33.391-33.391
			S151.978,222.609,133.565,222.609z"/>
	</g>
</g>
<g>
	<g>
		<path d="M320.687,222.609H191.312c5.71,9.836,9.036,21.221,9.036,33.391s-3.326,23.555-9.036,33.391h129.375
			c-5.71-9.836-9.036-21.221-9.036-33.391S314.977,232.445,320.687,222.609z"/>
	</g>
</g>
</svg>