<?xml version="1.0" encoding="iso-8859-1"?>
<!-- Uploaded to: SVG Repo, www.svgrepo.com, Generator: SVG Repo Mixer Tools -->
<!DOCTYPE svg PUBLIC "-//W3C//DTD SVG 1.1//EN" "http://www.w3.org/Graphics/SVG/1.1/DTD/svg11.dtd">
<svg fill="#000000" height="800px" width="800px" version="1.1" id="Capa_1" xmlns="http://www.w3.org/2000/svg" xmlns:xlink="http://www.w3.org/1999/xlink" 
	 viewBox="0 0 409.177 409.177" xml:space="preserve">
<path d="M359.752,108.935h-24.024C331.115,48.094,280.136,0,218.134,0h-27.092C129.04,0,78.06,48.094,73.448,108.935H49.424
	c-24.117,0-43.737,19.621-43.737,43.738v76.603c0,24.117,19.62,43.737,43.737,43.737h32.683c4.971,0,9-4.029,9-9V117.935
	C91.107,62.831,135.938,18,191.042,18h27.092c55.104,0,99.935,44.831,99.935,99.935v145.674c0,42.606-26.907,80.163-66.419,94.185
	c-5.687-12.869-18.566-21.876-33.515-21.876c-20.198,0-36.63,16.432-36.63,36.629s16.432,36.629,36.63,36.629
	c19.109,0,34.838-14.711,36.479-33.402c45.325-14.703,77.308-55.356,81.073-102.762h24.067c24.117,0,43.737-19.621,43.737-43.737
	v-76.603C403.49,128.556,383.87,108.935,359.752,108.935z M73.107,255.013H49.424c-14.191,0-25.737-11.546-25.737-25.737v-76.603
	c0-14.192,11.546-25.738,25.737-25.738h23.683V255.013z M218.134,391.177c-10.272,0-18.63-8.357-18.63-18.629
	s8.357-18.629,18.63-18.629s18.629,8.357,18.629,18.629S228.407,391.177,218.134,391.177z M385.49,229.276
	c0,14.191-11.546,25.737-25.737,25.737h-23.684V126.935h23.684c14.191,0,25.737,11.546,25.737,25.738V229.276z"/>
</svg>