<?xml version="1.0" encoding="iso-8859-1"?>
<!-- Uploaded to: SVG Repo, www.svgrepo.com, Generator: SVG Repo Mixer Tools -->
<!DOCTYPE svg PUBLIC "-//W3C//DTD SVG 1.1//EN" "http://www.w3.org/Graphics/SVG/1.1/DTD/svg11.dtd">
<svg fill="#000000" height="800px" width="800px" version="1.1" id="Capa_1" xmlns="http://www.w3.org/2000/svg" xmlns:xlink="http://www.w3.org/1999/xlink" 
	 viewBox="0 0 380.45 380.45" xml:space="preserve">
<g>
	<path d="M86.73,28.828c-21.447-15.224-51.45-13.232-70.658,5.976c-21.43,21.43-21.43,56.299,0,77.729l63.587,63.587
		c1.953,1.952,4.512,2.929,7.071,2.929s5.119-0.977,7.071-2.929l63.587-63.587c21.43-21.43,21.43-56.299,0-77.729
		C138.18,15.596,108.177,13.604,86.73,28.828z M143.246,98.391L86.73,154.907L30.215,98.391c-13.632-13.632-13.632-35.813,0-49.444
		c6.816-6.816,15.769-10.224,24.722-10.224s17.906,3.408,24.722,10.224c3.905,3.905,10.237,3.905,14.143,0
		c13.632-13.633,35.813-13.633,49.444,0C156.878,62.578,156.878,84.759,143.246,98.391z"/>
	<path d="M286.649,176.12c1.953,1.952,4.512,2.929,7.071,2.929s5.119-0.977,7.071-2.929l63.587-63.587
		c21.429-21.43,21.429-56.299,0-77.729c-10.381-10.381-24.183-16.099-38.864-16.099c-11.558,0-22.572,3.544-31.801,10.117
		c-21.445-15.217-51.446-13.224-70.651,5.981c-21.43,21.43-21.43,56.299,0,77.729L286.649,176.12z M237.205,48.946
		c6.816-6.816,15.769-10.224,24.722-10.224s17.906,3.408,24.722,10.224c3.905,3.905,10.237,3.905,14.143,0
		c13.631-13.632,35.813-13.632,49.444,0c13.632,13.632,13.632,35.813,0,49.445l-56.516,56.516l-56.516-56.516
		C223.572,84.759,223.572,62.578,237.205,48.946z"/>
	<path d="M86.73,211.524c-21.447-15.225-51.45-13.232-70.658,5.976c-21.43,21.43-21.43,56.299,0,77.729l63.587,63.587
		c1.953,1.953,4.512,2.929,7.071,2.929s5.119-0.976,7.071-2.929l63.587-63.587c21.43-21.43,21.43-56.299,0-77.729
		C138.18,198.292,108.177,196.299,86.73,211.524z M143.246,281.086L86.73,337.603l-56.516-56.516
		c-13.632-13.632-13.632-35.813,0-49.444c6.816-6.816,15.769-10.224,24.722-10.224s17.906,3.408,24.722,10.224
		c3.905,3.905,10.237,3.905,14.143,0c13.632-13.633,35.813-13.633,49.444,0C156.878,245.274,156.878,267.455,143.246,281.086z"/>
	<path d="M260.421,234.131c-3.905-3.905-10.237-3.905-14.143,0s-3.905,10.237,0,14.143l23.855,23.855
		c1.953,1.953,4.512,2.929,7.071,2.929s5.119-0.976,7.071-2.929c3.905-3.905,3.905-10.237,0-14.143L260.421,234.131z"/>
	<path d="M317.307,291.017c-3.905-3.905-10.237-3.905-14.143,0s-3.905,10.237,0,14.143l23.855,23.855
		c1.953,1.953,4.512,2.929,7.071,2.929s5.119-0.976,7.071-2.929c3.905-3.905,3.905-10.237,0-14.143L317.307,291.017z"/>
	<path d="M310.235,275.058c2.559,0,5.119-0.977,7.071-2.929l23.855-23.855c3.905-3.905,3.905-10.237,0-14.142
		s-10.237-3.905-14.142,0l-23.855,23.855c-3.905,3.905-3.905,10.237,0,14.142C305.117,274.082,307.676,275.058,310.235,275.058z"/>
	<path d="M284.276,291.018c-3.906-3.906-10.237-3.905-14.142,0l-23.855,23.855c-3.905,3.905-3.906,10.237,0,14.142
		c1.953,1.953,4.512,2.929,7.071,2.929c2.559,0,5.119-0.977,7.071-2.929l23.855-23.855
		C288.181,301.254,288.182,294.923,284.276,291.018z"/>
	<path d="M359.427,271.573h-24.722c-5.523,0-10,4.477-10,10s4.477,10,10,10h24.722c5.523,0,10-4.477,10-10
		S364.95,271.573,359.427,271.573z"/>
	<path d="M262.736,281.573c0-5.523-4.477-10-10-10h-24.723c-5.523,0-10,4.477-10,10s4.477,10,10,10h24.723
		C258.259,291.573,262.736,287.096,262.736,281.573z"/>
	<path d="M293.72,312.558c-5.523,0-10,4.477-10,10v24.722c0,5.523,4.477,10,10,10s10-4.477,10-10v-24.722
		C303.72,317.035,299.243,312.558,293.72,312.558z"/>
	<path d="M303.72,240.589v-24.723c0-5.523-4.477-10-10-10s-10,4.477-10,10v24.723c0,5.523,4.477,10,10,10
		S303.72,246.112,303.72,240.589z"/>
</g>
</svg>