<?xml version="1.0" encoding="iso-8859-1"?>
<!-- Uploaded to: SVG Repo, www.svgrepo.com, Generator: SVG Repo Mixer Tools -->
<svg fill="#000000" height="800px" width="800px" version="1.1" id="Layer_1" xmlns="http://www.w3.org/2000/svg" xmlns:xlink="http://www.w3.org/1999/xlink" 
	 viewBox="0 0 512 512" xml:space="preserve">
<g>
	<g>
		<path d="M256,222.609c-46.032,0-83.478,37.446-83.478,83.478c0,46.032,37.446,83.478,83.478,83.478s83.478-37.446,83.478-83.478
			C339.478,260.055,302.032,222.609,256,222.609z M256,356.174c-27.619,0-50.087-22.468-50.087-50.087
			C205.913,278.468,228.381,256,256,256s50.087,22.468,50.087,50.087C306.087,333.706,283.619,356.174,256,356.174z"/>
	</g>
</g>
<g>
	<g>
		<path d="M361.432,256c7.255,15.205,11.438,32.147,11.438,50.087c0,64.441-52.429,116.87-116.87,116.87
			s-116.87-52.429-116.87-116.87c0-17.94,4.183-34.882,11.438-50.087H0v183.652c0,27.619,22.468,50.087,50.087,50.087h411.826
			c27.619,0,50.087-22.468,50.087-50.087V256H361.432z"/>
	</g>
</g>
<g>
	<g>
		<path d="M461.913,22.261H243.245c-19.086,0-36.255,10.608-44.793,27.685c-0.006,0-0.006,0-0.006,0l-19.548,39.098H139.13V38.957
			c0-9.223-7.473-16.696-16.696-16.696H50.087c-9.223,0-16.696,7.473-16.696,16.696V92.12C14,99.034,0,117.394,0,139.13v83.478
			h174.366c21.084-20.622,49.882-33.391,81.634-33.391c31.752,0,60.55,12.769,81.634,33.391H512V72.348
			C512,44.729,489.532,22.261,461.913,22.261z M89.044,189.217c-9.22,0-16.696-7.475-16.696-16.696s7.475-16.696,16.696-16.696
			c9.22,0,16.696,7.475,16.696,16.696S98.264,189.217,89.044,189.217z M105.739,89.043H66.783V55.652h38.957V89.043z
			 M189.217,189.217h-33.391c-9.223,0-16.696-7.473-16.696-16.696c0-9.223,7.473-16.696,16.696-16.696h33.391
			c9.223,0,16.696,7.473,16.696,16.696C205.913,181.744,198.44,189.217,189.217,189.217z M445.217,172.522
			c0,9.223-7.473,16.696-16.696,16.696H322.783c-9.223,0-16.696-7.473-16.696-16.696v-66.783c0-9.223,7.473-16.696,16.696-16.696
			h105.739c9.223,0,16.696,7.473,16.696,16.696V172.522z"/>
	</g>
</g>
</svg>