<?xml version="1.0" encoding="iso-8859-1"?>
<!-- Uploaded to: SVG Repo, www.svgrepo.com, Generator: SVG Repo Mixer Tools -->
<svg fill="#000000" height="800px" width="800px" version="1.1" id="Layer_1" xmlns="http://www.w3.org/2000/svg" xmlns:xlink="http://www.w3.org/1999/xlink" 
	 viewBox="0 0 512 512" xml:space="preserve">
<g>
	<g>
		<path d="M256,233.739c-46.032,0-83.478,37.446-83.478,83.478c0,46.032,37.446,83.478,83.478,83.478s83.478-37.446,83.478-83.478
			C339.478,271.185,302.032,233.739,256,233.739z M256,367.304c-27.619,0-50.087-22.468-50.087-50.087
			c0-27.619,22.468-50.087,50.087-50.087s50.087,22.468,50.087,50.087C306.087,344.836,283.619,367.304,256,367.304z"/>
	</g>
</g>
<g>
	<g>
		<path d="M256,100.174c-9.206,0-16.696,7.49-16.696,16.696s7.49,16.696,16.696,16.696s16.696-7.49,16.696-16.696
			S265.206,100.174,256,100.174z"/>
	</g>
</g>
<g>
	<g>
		<path d="M256,300.522c-9.206,0-16.696,7.49-16.696,16.696c0,9.206,7.49,16.696,16.696,16.696s16.696-7.49,16.696-16.696
			C272.696,308.011,265.206,300.522,256,300.522z"/>
	</g>
</g>
<g>
	<g>
		<path d="M389.565,0h-267.13C94.816,0,72.348,22.468,72.348,50.087v411.826c0,27.619,22.468,50.087,50.087,50.087h267.13
			c27.619,0,50.087-22.468,50.087-50.087V50.087C439.652,22.468,417.184,0,389.565,0z M256,66.783
			c27.619,0,50.087,22.468,50.087,50.087c0,27.619-22.468,50.087-50.087,50.087s-50.087-22.468-50.087-50.087
			C205.913,89.251,228.381,66.783,256,66.783z M155.826,66.783c9.22,0,16.696,7.475,16.696,16.696s-7.475,16.696-16.696,16.696
			s-16.696-7.475-16.696-16.696S146.606,66.783,155.826,66.783z M155.826,445.217c-9.22,0-16.696-7.475-16.696-16.696
			s7.475-16.696,16.696-16.696s16.696,7.475,16.696,16.696S165.047,445.217,155.826,445.217z M356.174,445.217
			c-9.22,0-16.696-7.475-16.696-16.696s7.475-16.696,16.696-16.696c9.22,0,16.696,7.475,16.696,16.696
			S365.394,445.217,356.174,445.217z M256,434.087c-64.445,0-116.87-52.429-116.87-116.87c0-64.441,52.424-116.87,116.87-116.87
			s116.87,52.429,116.87,116.87C372.87,381.658,320.445,434.087,256,434.087z M356.174,100.174c-9.22,0-16.696-7.475-16.696-16.696
			s7.475-16.696,16.696-16.696c9.22,0,16.696,7.475,16.696,16.696S365.394,100.174,356.174,100.174z"/>
	</g>
</g>
</svg>