<?xml version="1.0" encoding="iso-8859-1"?>
<!-- Uploaded to: SVG Repo, www.svgrepo.com, Generator: SVG Repo Mixer Tools -->
<svg fill="#000000" height="800px" width="800px" version="1.1" id="Layer_1" xmlns="http://www.w3.org/2000/svg" xmlns:xlink="http://www.w3.org/1999/xlink" 
	 viewBox="0 0 512 512" xml:space="preserve">
<g>
	<g>
		<path d="M461.913,86.261h-199l54.979-54.979c6.521-6.516,6.521-17.092,0-23.609c-6.521-6.521-17.087-6.521-23.609,0
			l-71.674,71.674L150.934,7.675c-6.521-6.521-17.087-6.521-23.609,0c-6.521,6.516-6.521,17.092,0,23.609l54.979,54.978H50.087
			C22.468,86.261,0,108.729,0,136.348v322.783c0,27.619,22.468,50.087,50.087,50.087h411.826c27.619,0,50.087-22.468,50.087-50.087
			V136.348C512,108.729,489.532,86.261,461.913,86.261z M378.435,392.348c0,27.619-22.468,50.087-50.087,50.087H116.87
			c-27.619,0-50.087-22.468-50.087-50.087V203.131c0-27.619,22.468-50.087,50.087-50.087h211.478
			c27.619,0,50.087,22.468,50.087,50.087V392.348z M428.522,442.435c-9.22,0-16.696-7.475-16.696-16.696s7.475-16.696,16.696-16.696
			s16.696,7.475,16.696,16.696S437.742,442.435,428.522,442.435z M428.522,375.652c-9.22,0-16.696-7.475-16.696-16.696
			c0-9.22,7.475-16.696,16.696-16.696s16.696,7.475,16.696,16.696C445.217,368.177,437.742,375.652,428.522,375.652z
			 M445.217,292.174c0,9.223-7.473,16.696-16.696,16.696c-9.223,0-16.696-7.473-16.696-16.696v-27.826
			c0-9.223,7.473-16.696,16.696-16.696c9.223,0,16.696,7.473,16.696,16.696V292.174z M445.217,197.565
			c0,9.223-7.473,16.696-16.696,16.696c-9.223,0-16.696-7.473-16.696-16.696v-27.826c0-9.223,7.473-16.696,16.696-16.696
			c9.223,0,16.696,7.473,16.696,16.696V197.565z"/>
	</g>
</g>
</svg>