<?xml version="1.0" encoding="iso-8859-1"?>
<!-- Uploaded to: SVG Repo, www.svgrepo.com, Generator: SVG Repo Mixer Tools -->
<svg fill="#000000" height="800px" width="800px" version="1.1" id="Layer_1" xmlns="http://www.w3.org/2000/svg" xmlns:xlink="http://www.w3.org/1999/xlink" 
	 viewBox="0 0 512 512" xml:space="preserve">
<g>
	<g>
		<path d="M256,205.913c-27.619,0-50.087,22.468-50.087,50.087s22.468,50.087,50.087,50.087s50.087-22.468,50.087-50.087
			S283.619,205.913,256,205.913z M256,272.696c-9.22,0-16.696-7.475-16.696-16.696c0-9.22,7.475-16.696,16.696-16.696
			c9.22,0,16.696,7.475,16.696,16.696C272.696,265.22,265.22,272.696,256,272.696z"/>
	</g>
</g>
<g>
	<g>
		<path d="M256,0C114.837,0,0,114.843,0,256s114.837,256,256,256s256-114.843,256-256S397.163,0,256,0z M149.75,362.25
			c6.521,6.516,6.521,17.087,0,23.609c-6.522,6.522-17.086,6.522-23.609,0C91.5,351.223,72.424,305.109,72.424,256
			s19.076-95.223,53.718-129.859c6.521-6.521,17.087-6.521,23.609,0s6.521,17.092,0,23.609
			c-28.326,28.331-43.935,66.065-43.935,106.25S121.424,333.919,149.75,362.25z M256,339.478c-46.032,0-83.478-37.446-83.478-83.478
			s37.446-83.478,83.478-83.478s83.478,37.446,83.478,83.478S302.032,339.478,256,339.478z M385.859,385.859
			c-6.522,6.522-17.086,6.522-23.609,0c-6.521-6.521-6.521-17.092,0-23.609c28.326-28.331,43.935-66.065,43.935-106.25
			s-15.608-77.919-43.935-106.25c-6.521-6.516-6.521-17.087,0-23.609c6.521-6.521,17.087-6.521,23.609,0
			c34.641,34.636,53.718,80.75,53.718,129.859S420.5,351.223,385.859,385.859z"/>
	</g>
</g>
</svg>