<?xml version="1.0" encoding="iso-8859-1"?>
<!-- Uploaded to: SVG Repo, www.svgrepo.com, Generator: SVG Repo Mixer Tools -->
<svg fill="#000000" version="1.1" id="Layer_1" xmlns="http://www.w3.org/2000/svg" xmlns:xlink="http://www.w3.org/1999/xlink" 
	 viewBox="0 0 512 512" xml:space="preserve">
<g>
	<g>
		<path d="M150.261,239.304c-27.619,0-50.087,22.468-50.087,50.087c0,27.619,22.468,50.087,50.087,50.087h16.696V239.304H150.261z"
			/>
	</g>
</g>
<g>
	<g>
		<rect x="200.348" y="239.304" width="111.304" height="33.391"/>
	</g>
</g>
<g>
	<g>
		<rect x="200.348" y="306.087" width="111.304" height="33.391"/>
	</g>
</g>
<g>
	<g>
		<path d="M361.739,239.304h-16.696v100.174h16.696c27.619,0,50.087-22.468,50.087-50.087
			C411.826,261.772,389.358,239.304,361.739,239.304z"/>
	</g>
</g>
<g>
	<g>
		<path d="M461.913,72.348H50.087C22.468,72.348,0,94.816,0,122.435v16.696h512v-16.696C512,94.816,489.532,72.348,461.913,72.348z"
			/>
	</g>
</g>
<g>
	<g>
		<path d="M0,172.522v217.043c0,27.619,22.468,50.087,50.087,50.087h411.826c27.619,0,50.087-22.468,50.087-50.087V172.522H0z
			 M361.739,372.87c-43.439,0-167.054,0-211.478,0c-46.032,0-83.478-37.446-83.478-83.478c0-46.032,37.446-83.478,83.478-83.478
			c43.439,0,167.055,0,211.478,0c46.032,0,83.478,37.446,83.478,83.478C445.217,335.423,407.771,372.87,361.739,372.87z"/>
	</g>
</g>
</svg>