<?xml version="1.0" encoding="iso-8859-1"?>
<!-- Uploaded to: SVG Repo, www.svgrepo.com, Generator: SVG Repo Mixer Tools -->
<svg fill="#000000" version="1.1" id="Layer_1" xmlns="http://www.w3.org/2000/svg" xmlns:xlink="http://www.w3.org/1999/xlink" 
	 viewBox="0 0 512 512" xml:space="preserve">
<g>
	<g>
		<rect x="205.913" y="166.957" width="100.174" height="44.522"/>
	</g>
</g>
<g>
	<g>
		<path d="M372.87,69.859V16.696C372.87,7.473,365.391,0,356.174,0c-9.217,0-16.696,7.473-16.696,16.696v50.087H155.826
			c-27.619,0-50.087,22.468-50.087,50.087v345.043c0,27.619,22.468,50.087,50.087,50.087h200.348
			c27.619,0,50.087-22.468,50.087-50.087V116.87C406.261,95.133,392.261,76.773,372.87,69.859z M189.217,445.217
			c-9.22,0-16.696-7.475-16.696-16.696s7.475-16.696,16.696-16.696s16.696,7.475,16.696,16.696S198.438,445.217,189.217,445.217z
			 M189.217,378.435c-9.22,0-16.696-7.475-16.696-16.696s7.475-16.696,16.696-16.696s16.696,7.475,16.696,16.696
			S198.438,378.435,189.217,378.435z M189.217,311.652c-9.22,0-16.696-7.475-16.696-16.696s7.475-16.696,16.696-16.696
			s16.696,7.475,16.696,16.696S198.438,311.652,189.217,311.652z M256,445.217c-9.22,0-16.696-7.475-16.696-16.696
			s7.475-16.696,16.696-16.696s16.696,7.475,16.696,16.696S265.22,445.217,256,445.217z M256,378.435
			c-9.22,0-16.696-7.475-16.696-16.696s7.475-16.696,16.696-16.696s16.696,7.475,16.696,16.696S265.22,378.435,256,378.435z
			 M256,311.652c-9.22,0-16.696-7.475-16.696-16.696s7.475-16.696,16.696-16.696s16.696,7.475,16.696,16.696
			S265.22,311.652,256,311.652z M322.783,445.217c-9.22,0-16.696-7.475-16.696-16.696s7.475-16.696,16.696-16.696
			s16.696,7.475,16.696,16.696S332.003,445.217,322.783,445.217z M322.783,378.435c-9.22,0-16.696-7.475-16.696-16.696
			s7.475-16.696,16.696-16.696s16.696,7.475,16.696,16.696S332.003,378.435,322.783,378.435z M322.783,311.652
			c-9.22,0-16.696-7.475-16.696-16.696s7.475-16.696,16.696-16.696s16.696,7.475,16.696,16.696S332.003,311.652,322.783,311.652z
			 M339.478,228.174c0,9.223-7.479,16.696-16.696,16.696H189.217c-9.217,0-16.696-7.473-16.696-16.696v-77.913
			c0-9.223,7.479-16.696,16.696-16.696h133.565c9.217,0,16.696,7.473,16.696,16.696V228.174z"/>
	</g>
</g>
</svg>