<?xml version="1.0" encoding="iso-8859-1"?>
<!-- Uploaded to: SVG Repo, www.svgrepo.com, Generator: SVG Repo Mixer Tools -->
<svg fill="#000000" height="800px" width="800px" version="1.1" id="Layer_1" xmlns="http://www.w3.org/2000/svg" xmlns:xlink="http://www.w3.org/1999/xlink" 
	 viewBox="0 0 512 512" xml:space="preserve">
<g>
	<g>
		<path d="M495.304,378.435H16.696C7.479,378.435,0,385.908,0,395.13v100.174C0,504.527,7.479,512,16.696,512h478.609
			c9.217,0,16.696-7.473,16.696-16.696V395.13C512,385.908,504.521,378.435,495.304,378.435z M228.174,461.913H83.478
			c-9.217,0-16.696-7.473-16.696-16.696c0-9.223,7.479-16.696,16.696-16.696h144.696c9.217,0,16.696,7.473,16.696,16.696
			C244.87,454.44,237.391,461.913,228.174,461.913z M311.652,461.913c0,9.223-7.479,16.696-16.696,16.696
			c-9.217,0-16.696-7.473-16.696-16.696v-33.391c0-9.223,7.479-16.696,16.696-16.696c9.217,0,16.696,7.473,16.696,16.696V461.913z
			 M378.435,461.913c0,9.223-7.479,16.696-16.696,16.696s-16.696-7.473-16.696-16.696v-33.391c0-9.223,7.479-16.696,16.696-16.696
			s16.696,7.473,16.696,16.696V461.913z M445.217,461.913c0,9.223-7.479,16.696-16.696,16.696s-16.696-7.473-16.696-16.696v-33.391
			c0-9.223,7.479-16.696,16.696-16.696s16.696,7.473,16.696,16.696V461.913z"/>
	</g>
</g>
<g>
	<g>
		<path d="M428.522,0H83.478C55.859,0,33.391,22.468,33.391,50.087v294.956h445.217V50.087C478.609,22.468,456.141,0,428.522,0z
			 M411.826,261.565c0,9.223-7.479,16.696-16.696,16.696H116.87c-9.217,0-16.696-7.473-16.696-16.696V83.478
			c0-9.223,7.479-16.696,16.696-16.696H395.13c9.217,0,16.696,7.473,16.696,16.696V261.565z"/>
	</g>
</g>
</svg>