<?xml version="1.0" encoding="iso-8859-1"?>
<!-- Uploaded to: SVG Repo, www.svgrepo.com, Generator: SVG Repo Mixer Tools -->
<svg fill="#000000" height="800px" width="800px" version="1.1" id="Layer_1" xmlns="http://www.w3.org/2000/svg" xmlns:xlink="http://www.w3.org/1999/xlink" 
	 viewBox="0 0 512 512" xml:space="preserve">
<g>
	<g>
		<path d="M337.329,83.426c4.776-8.208,7.714-17.614,7.714-27.774C345.043,24.968,320.076,0,289.391,0s-55.652,24.968-55.652,55.652
			c0,10.16,2.938,19.566,7.714,27.774C144.795,105.331,72.348,191.767,72.348,294.957C72.348,414.635,169.712,512,289.391,512
			s217.043-97.365,217.043-217.043C506.435,191.767,433.988,105.331,337.329,83.426z M352.701,178.087h-46.614v-62.325
			C323.399,124.578,340.243,146.489,352.701,178.087z M126.013,211.478h55.21c-4.532,20.736-7.335,43.193-8.262,66.783h-66.376
			C108.75,254.378,115.557,231.858,126.013,211.478z M126.012,378.435c-10.455-20.38-17.262-42.9-19.427-66.783h66.376
			c0.927,23.59,3.73,46.047,8.261,66.783H126.012z M147.834,411.826h42.673c6.47,19.102,14.432,36.195,23.729,50.524
			C188.414,450.708,165.677,433.398,147.834,411.826z M272.696,474.151c-17.312-8.816-34.156-30.727-46.614-62.325h46.614V474.151z
			 M272.696,278.261h-66.36c1.043-24.363,4.353-46.755,9.275-66.783h57.085V278.261z M272.696,178.087h-46.614
			c12.458-31.598,29.302-53.508,46.614-62.325V178.087z M289.391,77.913c-12.277,0-22.261-9.984-22.261-22.261
			c0-12.277,9.984-22.261,22.261-22.261s22.261,9.984,22.261,22.261C311.652,67.929,301.668,77.913,289.391,77.913z
			 M306.087,474.151v-62.325h46.614C340.243,443.424,323.399,465.335,306.087,474.151z M363.172,378.435h-57.085v-66.783h66.36
			C371.404,336.016,368.094,358.407,363.172,378.435z M306.087,278.261v-66.783h57.085c4.923,20.028,8.232,42.419,9.275,66.783
			H306.087z M364.545,127.563c25.824,11.642,48.561,28.953,66.403,50.524h-42.674C381.804,158.985,373.842,141.892,364.545,127.563z
			 M397.559,378.435c4.532-20.736,7.335-43.193,8.262-66.783h66.376c-2.165,23.883-8.972,46.403-19.428,66.783H397.559z"/>
	</g>
</g>
<g>
	<g>
		<path d="M89.044,77.913H72.348V61.217c0-9.223-7.473-16.696-16.696-16.696c-9.223,0-16.696,7.473-16.696,16.696v16.696H22.261
			c-9.223,0-16.696,7.473-16.696,16.696s7.473,16.696,16.696,16.696h16.696V128c0,9.223,7.473,16.696,16.696,16.696
			c9.223,0,16.696-7.473,16.696-16.696v-16.696h16.696c9.223,0,16.696-7.473,16.696-16.696S98.266,77.913,89.044,77.913z"/>
	</g>
</g>
</svg>