<?xml version="1.0" encoding="iso-8859-1"?>
<!-- Uploaded to: SVG Repo, www.svgrepo.com, Generator: SVG Repo Mixer Tools -->
<svg fill="#000000" version="1.1" id="Layer_1" xmlns="http://www.w3.org/2000/svg" xmlns:xlink="http://www.w3.org/1999/xlink" 
	 viewBox="0 0 512 512" xml:space="preserve">
<g>
	<g>
		<rect x="205.913" y="100.174" width="100.174" height="77.913"/>
	</g>
</g>
<g>
	<g>
		<path d="M422.957,0H89.044c-9.217,0-16.696,7.473-16.696,16.696c0,9.223,7.479,16.696,16.696,16.696h16.696V244.87h300.522V33.391
			h16.696c9.217,0,16.696-7.473,16.696-16.696C439.652,7.473,432.174,0,422.957,0z M339.478,194.783
			c0,9.223-7.479,16.696-16.696,16.696H189.217c-9.217,0-16.696-7.473-16.696-16.696V83.478c0-9.223,7.479-16.696,16.696-16.696
			h133.565c9.217,0,16.696,7.473,16.696,16.696V194.783z"/>
	</g>
</g>
<g>
	<g>
		<path d="M72.348,378.435v116.87c0,9.223,7.479,16.696,16.696,16.696h333.913c9.217,0,16.696-7.473,16.696-16.696v-116.87H72.348z
			 M339.478,478.609H172.522v-33.391h166.957V478.609z"/>
	</g>
</g>
<g>
	<g>
		<path d="M434.987,345.043l-22.261-66.783H99.273l-22.261,66.783h95.509v-16.696c0-9.223,7.479-16.696,16.696-16.696
			s16.696,7.473,16.696,16.696v16.696h100.174v-16.696c0-9.223,7.479-16.696,16.696-16.696c9.217,0,16.696,7.473,16.696,16.696
			v16.696H434.987z"/>
	</g>
</g>
</svg>