<?xml version="1.0" encoding="iso-8859-1"?>
<!-- Uploaded to: SVG Repo, www.svgrepo.com, Generator: SVG Repo Mixer Tools -->
<svg fill="#000000" version="1.1" id="Layer_1" xmlns="http://www.w3.org/2000/svg" xmlns:xlink="http://www.w3.org/1999/xlink" 
	 viewBox="0 0 512 512" xml:space="preserve">
<g>
	<g>
		<rect x="172.522" y="100.174" width="166.957" height="111.304"/>
	</g>
</g>
<g>
	<g>
		<path d="M389.565,0h-267.13C94.816,0,72.348,22.468,72.348,50.087v411.826c0,27.619,22.468,50.087,50.087,50.087h233.739
			c46.032,0,83.478-37.446,83.478-83.478V50.087C439.652,22.468,417.184,0,389.565,0z M222.609,445.217h-33.391
			c-9.217,0-16.696-7.473-16.696-16.696c0-9.223,7.479-16.696,16.696-16.696h33.391c9.217,0,16.696,7.473,16.696,16.696
			C239.304,437.744,231.826,445.217,222.609,445.217z M222.609,345.043h-16.696v16.696c0,9.223-7.479,16.696-16.696,16.696
			s-16.696-7.473-16.696-16.696v-16.696h-16.696c-9.217,0-16.696-7.473-16.696-16.696c0-9.223,7.479-16.696,16.696-16.696h16.696
			v-16.696c0-9.223,7.479-16.696,16.696-16.696s16.696,7.473,16.696,16.696v16.696h16.696c9.217,0,16.696,7.473,16.696,16.696
			C239.304,337.57,231.826,345.043,222.609,345.043z M322.783,445.217h-33.391c-9.217,0-16.696-7.473-16.696-16.696
			c0-9.223,7.479-16.696,16.696-16.696h33.391c9.217,0,16.696,7.473,16.696,16.696C339.478,437.744,332,445.217,322.783,445.217z
			 M322.783,378.435c-9.22,0-16.696-7.475-16.696-16.696s7.475-16.696,16.696-16.696s16.696,7.475,16.696,16.696
			S332.003,378.435,322.783,378.435z M356.174,311.652c-9.22,0-16.696-7.475-16.696-16.696s7.475-16.696,16.696-16.696
			c9.22,0,16.696,7.475,16.696,16.696S365.394,311.652,356.174,311.652z M372.87,228.174c0,9.223-7.479,16.696-16.696,16.696
			H155.826c-9.217,0-16.696-7.473-16.696-16.696V83.478c0-9.223,7.479-16.696,16.696-16.696h200.348
			c9.217,0,16.696,7.473,16.696,16.696V228.174z"/>
	</g>
</g>
</svg>