<?xml version="1.0" encoding="iso-8859-1"?>
<!-- Uploaded to: SVG Repo, www.svgrepo.com, Generator: SVG Repo Mixer Tools -->
<svg fill="#000000" height="800px" width="800px" version="1.1" id="Layer_1" xmlns="http://www.w3.org/2000/svg" xmlns:xlink="http://www.w3.org/1999/xlink" 
	 viewBox="0 0 512 512" xml:space="preserve">
<g>
	<g>
		<path d="M473.043,313.494v-96.451C473.043,98.725,376.32,0,256,0C136.342,0,38.957,98.02,38.957,217.043v96.451
			C18.334,334.579,5.565,363.378,5.565,395.13C5.565,459.571,57.99,512,122.435,512h50.087c18.413,0,33.391-14.978,33.391-33.391
			V311.652c0-18.413-14.978-33.391-33.391-33.391h-50.087c-17.94,0-34.881,4.182-50.087,11.437v-72.654
			c0-30.072,7.407-58.399,20.274-83.478h326.755c12.868,25.079,20.275,53.406,20.275,83.478v72.654
			c-15.206-7.255-32.147-11.437-50.087-11.437h-50.087c-18.413,0-33.391,14.978-33.391,33.391v166.957
			c0,18.413,14.978,33.391,33.391,33.391h50.087c64.445,0,116.87-52.429,116.87-116.87
			C506.435,363.378,493.666,334.579,473.043,313.494z M139.13,311.652h33.391l0.022,166.957H139.13V311.652z M114.445,100.174
			C148.159,59.412,199.098,33.391,256,33.391s107.841,26.021,141.555,66.783H114.445z M372.87,478.609h-33.391V311.652h33.391
			V478.609z"/>
	</g>
</g>
</svg>