<?xml version="1.0" encoding="iso-8859-1"?>
<!-- Uploaded to: SVG Repo, www.svgrepo.com, Generator: SVG Repo Mixer Tools -->
<svg fill="#000000" height="800px" width="800px" version="1.1" id="Layer_1" xmlns="http://www.w3.org/2000/svg" xmlns:xlink="http://www.w3.org/1999/xlink" 
	 viewBox="0 0 512 512" xml:space="preserve">
<g>
	<g>
		<path d="M467.742,44.291C421.968-1.586,352.658-12.777,295.342,15.193c-8.428-6.072-18.443-9.445-29.044-9.445
			c-13.5,0-26.155,5.307-35.538,14.848c-17.559,17.568-19.244,44.932-5.322,64.537c-21.933,45.102-20.05,98.589,5.748,142.365
			c6.437,10.948,14.265,21.056,23.264,30.055c9,9,19.107,16.827,30.04,23.259c23.673,13.947,50.178,20.924,76.666,20.924
			c22.515,0,44.999-5.095,65.726-15.176c8.507,6.041,18.507,9.416,28.995,9.416c13.239,0,25.817-5.198,35.478-14.689
			c9.573-9.497,14.848-22.135,14.848-35.586c-0.004-10.589-3.371-20.602-9.404-29.015C524.74,159.424,513.561,90.115,467.742,44.291
			z M467.812,257.439c-6.6,6.492-17.379,6.377-23.771,0.104l-3.016-3.016L257.479,70.981l-3.016-3.016
			c-6.524-6.524-6.524-17.145,0.098-23.771c3.131-3.18,7.298-4.931,11.739-4.931c4.441,0,8.607,1.751,11.837,5.029l2.996,2.996
			c0.008,0.008,0.012,0.018,0.02,0.026l91.794,91.794l94.812,94.816c3.18,3.147,4.931,7.332,4.931,11.777
			C472.689,250.151,470.938,254.341,467.812,257.439z"/>
	</g>
</g>
<g>
	<g>
		<path d="M267.479,309.69c-13.355-7.86-25.715-17.427-36.723-28.441c-11.018-11.013-20.592-23.385-28.458-36.765
			c-0.733-1.243-1.358-2.528-2.06-3.783L14.711,426.225c-19.588,19.599-19.582,51.476,0.006,71.064
			C24.203,506.774,36.819,512,50.244,512c13.429,0,26.046-5.226,35.532-14.711l185.522-185.518
			C270.031,311.065,268.73,310.427,267.479,309.69z"/>
	</g>
</g>
</svg>