<?xml version="1.0" encoding="iso-8859-1"?>
<!-- Uploaded to: SVG Repo, www.svgrepo.com, Generator: SVG Repo Mixer Tools -->
<svg fill="#000000" height="800px" width="800px" version="1.1" id="Layer_1" xmlns="http://www.w3.org/2000/svg" xmlns:xlink="http://www.w3.org/1999/xlink" 
	 viewBox="0 0 512 512" xml:space="preserve">
<g>
	<g>
		<path d="M456.348,200.348h-16.696v-16.696c0-9.223-7.479-16.696-16.696-16.696c-9.217,0-16.696,7.473-16.696,16.696v16.696H372.87
			V116.87C372.87,52.429,320.445,0,256,0S139.13,52.429,139.13,116.87v83.478h-33.391v-16.696c0-9.223-7.479-16.696-16.696-16.696
			c-9.217,0-16.696,7.473-16.696,16.696v16.696H55.652c-9.217,0-16.696,7.473-16.696,16.696c0,9.223,7.479,16.696,16.696,16.696
			h16.696v16.696c0,95.63,73.5,174.333,166.957,182.806v45.368h-50.087c-9.217,0-16.696,7.473-16.696,16.696
			c0,9.223,7.479,16.696,16.696,16.696h133.565c9.217,0,16.696-7.473,16.696-16.696c0-9.223-7.479-16.696-16.696-16.696h-50.087
			v-45.368c93.457-8.474,166.956-87.176,166.956-182.806v-16.696h16.696c9.217,0,16.696-7.473,16.696-16.696
			S465.565,200.348,456.348,200.348z M172.522,116.87c0-46.032,37.446-83.478,83.478-83.478s83.478,37.446,83.478,83.478v83.478
			H172.522V116.87z M406.261,250.435c0,82.853-67.403,150.261-150.261,150.261s-150.261-67.408-150.261-150.261v-16.696h33.391
			v16.696c0,64.441,52.424,116.87,116.87,116.87s116.87-52.429,116.87-116.87v-16.696h33.391V250.435z"/>
	</g>
</g>
<g>
	<g>
		<circle cx="256" cy="83.478" r="16.696"/>
	</g>
</g>
<g>
	<g>
		<circle cx="222.609" cy="150.261" r="16.696"/>
	</g>
</g>
<g>
	<g>
		<circle cx="289.391" cy="150.261" r="16.696"/>
	</g>
</g>
</svg>