<?xml version="1.0" encoding="iso-8859-1"?>
<!-- Uploaded to: SVG Repo, www.svgrepo.com, Generator: SVG Repo Mixer Tools -->
<!DOCTYPE svg PUBLIC "-//W3C//DTD SVG 1.1//EN" "http://www.w3.org/Graphics/SVG/1.1/DTD/svg11.dtd">
<svg fill="#000000" height="800px" width="800px" version="1.1" id="Capa_1" xmlns="http://www.w3.org/2000/svg" xmlns:xlink="http://www.w3.org/1999/xlink" 
	 viewBox="0 0 457.978 457.978" xml:space="preserve">
<g>
	<path d="M176.814,284.17h-11.263v-11.263c0-5.523-4.477-10-10-10s-10,4.477-10,10v11.263h-11.264c-5.523,0-10,4.477-10,10
		s4.477,10,10,10h11.264v11.263c0,5.523,4.477,10,10,10s10-4.477,10-10V304.17h11.263c5.523,0,10-4.477,10-10
		S182.337,284.17,176.814,284.17z"/>
	<path d="M302.422,294.798c-2.63,0-5.21,1.07-7.07,2.93c-1.86,1.86-2.92,4.44-2.92,7.07c0,2.64,1.06,5.21,2.92,7.07
		c1.87,1.87,4.44,2.93,7.07,2.93c2.63,0,5.21-1.06,7.08-2.93c1.86-1.86,2.92-4.43,2.92-7.07c0-2.63-1.06-5.21-2.92-7.07
		C307.632,295.868,305.062,294.798,302.422,294.798z"/>
	<path d="M323.692,273.538c-2.63,0-5.21,1.07-7.07,2.93c-1.86,1.86-2.93,4.44-2.93,7.07c0,2.63,1.07,5.21,2.93,7.07
		c1.86,1.86,4.43,2.93,7.07,2.93c2.63,0,5.21-1.07,7.07-2.93c1.86-1.86,2.93-4.44,2.93-7.07c0-2.63-1.07-5.21-2.93-7.07
		C328.902,274.608,326.322,273.538,323.692,273.538z"/>
	<path d="M237.498,208.667c18.191,0,35.294-7.084,48.157-19.947c3.905-3.905,3.905-10.237,0-14.142l-34.015-34.015l34.015-34.015
		c3.905-3.905,3.905-10.237,0-14.142c-12.863-12.863-29.966-19.947-48.157-19.947s-35.294,7.084-48.157,19.947
		c-12.864,12.863-19.948,29.966-19.948,48.157s7.084,35.294,19.947,48.157C202.204,201.583,219.306,208.667,237.498,208.667z
		 M203.483,106.548c9.085-9.086,21.166-14.089,34.015-14.089c9.448,0,18.481,2.706,26.212,7.75l-33.284,33.283
		c-3.905,3.905-3.905,10.237,0,14.142l33.284,33.283c-7.731,5.044-16.765,7.75-26.212,7.75c-12.849,0-24.929-5.004-34.015-14.089
		c-9.085-9.086-14.089-21.166-14.089-34.015S194.397,115.634,203.483,106.548z"/>
	<path d="M335.938,0H122.04c-21.805,0-39.544,17.74-39.544,39.544v378.889c0,21.805,17.739,39.544,39.544,39.544h213.898
		c21.805,0,39.544-17.74,39.544-39.544V39.544C375.482,17.74,357.742,0,335.938,0z M355.482,418.434
		c0,10.777-8.768,19.544-19.544,19.544H122.04c-10.776,0-19.544-8.768-19.544-19.544V39.544c0-10.777,8.768-19.544,19.544-19.544
		h213.898c10.777,0,19.544,8.768,19.544,19.544V418.434z"/>
	<path d="M330.482,35H127.495c-5.523,0-10,4.477-10,10v191.125c0,5.523,4.477,10,10,10h202.986c5.523,0,10-4.477,10-10V45
		C340.482,39.477,336.005,35,330.482,35z M320.482,226.125H137.495V55h182.986V226.125z"/>
</g>
</svg>