<?xml version="1.0" encoding="iso-8859-1"?>
<!-- Uploaded to: SVG Repo, www.svgrepo.com, Generator: SVG Repo Mixer Tools -->
<!DOCTYPE svg PUBLIC "-//W3C//DTD SVG 1.1//EN" "http://www.w3.org/Graphics/SVG/1.1/DTD/svg11.dtd">
<svg fill="#000000" height="800px" width="800px" version="1.1" id="Capa_1" xmlns="http://www.w3.org/2000/svg" xmlns:xlink="http://www.w3.org/1999/xlink" 
	 viewBox="0 0 446.646 446.646" xml:space="preserve">
<g>
	<path d="M106.965,252.716H262.11c5.522,0,10-4.477,10-10v-77.572c0-5.523-4.478-10-10-10h-67.572V10c0-5.523-4.478-10-10-10
		h-77.572c-5.522,0-10,4.477-10,10v232.716C96.965,248.239,101.443,252.716,106.965,252.716z M116.965,20h57.572v145.144
		c0,5.523,4.478,10,10,10h67.572v57.572H116.965V20z"/>
	<path d="M417.253,193.93h-77.571c-5.522,0-10,4.477-10,10v67.572H262.11c-5.522,0-10,4.477-10,10v67.572H29.393
		c-5.522,0-10,4.477-10,10v77.572c0,5.523,4.478,10,10,10h387.86c5.522,0,10-4.477,10-10V203.93
		C427.253,198.407,422.776,193.93,417.253,193.93z M39.393,369.075h290.289v57.572H39.393V369.075z M407.253,426.646h-57.571
		v-67.572c0-5.523-4.478-10-10-10H272.11v-57.572h67.572c5.522,0,10-4.477,10-10V213.93h57.571V426.646z"/>
</g>
</svg>