<?xml version="1.0" encoding="iso-8859-1"?>
<!-- Uploaded to: SVG Repo, www.svgrepo.com, Generator: SVG Repo Mixer Tools -->
<svg fill="#000000" height="800px" width="800px" version="1.1" id="Layer_1" xmlns="http://www.w3.org/2000/svg" xmlns:xlink="http://www.w3.org/1999/xlink" 
	 viewBox="0 0 512 512" xml:space="preserve">
<g>
	<g>
		<path d="M395.13,22.261c-58.762,0-107.391,43.634-115.535,100.174h-47.19C224.26,65.894,175.632,22.261,116.87,22.261
			C52.424,22.261,0,74.69,0,139.13c0,30.872,12.344,60.121,33.391,81.636v218.886c0,27.619,22.468,50.087,50.087,50.087h16.696
			v-50.087c0-9.223,7.479-16.696,16.696-16.696s16.696,7.473,16.696,16.696v50.087h33.391v-50.087
			c0-9.223,7.479-16.696,16.696-16.696c9.217,0,16.696,7.473,16.696,16.696v50.087h38.957v-50.087
			c0-9.223,7.479-16.696,16.696-16.696c9.217,0,16.696,7.473,16.696,16.696v50.087h38.956v-50.087
			c0-9.223,7.479-16.696,16.696-16.696s16.696,7.473,16.696,16.696v50.087h33.391v-50.087c0-9.223,7.479-16.696,16.696-16.696
			s16.696,7.473,16.696,16.696v50.087h16.696c27.619,0,50.087-22.468,50.087-50.087V220.767C500.625,198.256,512,169.08,512,139.13
			C512,74.69,459.576,22.261,395.13,22.261z M54.623,194.56l41.769-24.115c7.989-4.609,10.718-14.82,6.108-22.804
			c-4.598-7.995-14.837-10.723-22.804-6.108l-41.889,24.184c-2.82-8.362-4.415-17.283-4.415-26.586
			c0-40.316,28.724-74.04,66.783-81.795v48.404c0,9.223,7.479,16.696,16.696,16.696s16.696-7.473,16.696-16.696V57.335
			c38.058,7.756,66.783,41.48,66.783,81.795c0,9.266-1.581,18.155-4.381,26.49l-41.869-24.175
			c-7.978-4.609-18.196-1.891-22.804,6.108c-4.609,7.984-1.88,18.196,6.108,22.804l41.784,24.125
			c-15.301,17.209-37.531,28.125-62.316,28.125C92.121,222.609,69.921,211.723,54.623,194.56z M150.261,389.565
			c-27.619,0-50.087-22.468-50.087-50.087c0-27.619,22.468-50.087,50.087-50.087c27.619,0,50.087,22.468,50.087,50.087
			C200.348,367.097,177.88,389.565,150.261,389.565z M294.957,289.391h-77.913c-9.217,0-16.696-7.473-16.696-16.696
			c0-9.223,7.479-16.696,16.696-16.696h77.913c9.217,0,16.696,7.473,16.696,16.696C311.652,281.918,304.174,289.391,294.957,289.391
			z M361.739,389.565c-27.619,0-50.087-22.468-50.087-50.087c0-27.619,22.468-50.087,50.087-50.087
			c27.619,0,50.087,22.468,50.087,50.087C411.826,367.097,389.358,389.565,361.739,389.565z M474.228,165.621l-41.869-24.175
			c-7.978-4.609-18.196-1.891-22.804,6.108c-4.609,7.984-1.88,18.196,6.108,22.804l41.784,24.125
			c-15.301,17.209-37.531,28.125-62.316,28.125c-24.748,0-46.948-10.886-62.247-28.049l41.769-24.115
			c7.989-4.609,10.717-14.82,6.108-22.804c-4.598-7.995-14.837-10.723-22.804-6.108l-41.889,24.184
			c-2.82-8.362-4.415-17.283-4.415-26.586c0-40.316,28.724-74.04,66.783-81.795v48.404c0,9.223,7.479,16.696,16.696,16.696
			s16.696-7.473,16.696-16.696V57.335c38.058,7.756,66.783,41.48,66.783,81.795C478.609,148.397,477.028,157.285,474.228,165.621z"
			/>
	</g>
</g>
<g>
	<g>
		<path d="M150.261,322.783c-9.206,0-16.696,7.49-16.696,16.696s7.49,16.696,16.696,16.696s16.696-7.49,16.696-16.696
			S159.467,322.783,150.261,322.783z"/>
	</g>
</g>
<g>
	<g>
		<path d="M361.739,322.783c-9.206,0-16.696,7.49-16.696,16.696s7.49,16.696,16.696,16.696s16.696-7.49,16.696-16.696
			S370.945,322.783,361.739,322.783z"/>
	</g>
</g>
</svg>